<svg width="862" height="862" viewBox="0 0 862 862" fill="none" xmlns="http://www.w3.org/2000/svg">
<rect width="862" height="862" fill="black"/>
<path d="M432.31 603.419L266.605 208L291.746 229.865L432.31 576.709L432.31 603.419Z" fill="white" fill-opacity="0.3"/>
<path d="M432.097 603.419L597.803 208L572.662 229.865L432.097 576.709L432.097 603.419Z" fill="white" fill-opacity="0.3"/>
<path d="M431 492L418 437.475L431 370L444 437.475L431 492Z" fill="white" fill-opacity="0.3" stroke="white" stroke-opacity="0.3" stroke-width="0.97318"/>
<path d="M293.511 474L308.67 439.032L293.511 404.25H300.765L313.506 433.312H311.135L323.829 404.25H331.083L315.924 439.032L331.083 474H323.876L311.135 444.844H313.506L300.719 474H293.511ZM547.65 474H540.675V404.25H547.65V474ZM570.991 474H564.016V404.25H570.991V474Z" fill="white" fill-opacity="0.3"/>
<path d="M430.283 216L307.125 611.419L325.811 589.554L430.283 242.709L430.283 216Z" fill="#4C4C4C"/>
<path d="M430.125 216L553.283 611.419L534.597 589.554L430.125 242.709L430.125 216Z" fill="#4C4C4C"/>
</svg>
