<svg xmlns="http://www.w3.org/2000/svg" version="1.1" xmlns:xlink="http://www.w3.org/1999/xlink" xmlns:svgjs="http://svgjs.dev/svgjs" width="814" height="814"><svg width="814" height="814" viewBox="0 0 814 814" fill="none" xmlns="http://www.w3.org/2000/svg">
<rect width="814" height="814" rx="407" fill="black"></rect>
<path d="M407 485L394 430.475L407 363L420 430.475L407 485Z" fill="white" stroke="white" stroke-width="0.97318"></path>
<path d="M269.511 467L284.67 432.032L269.511 397.25H276.765L289.506 426.312H287.135L299.829 397.25H307.083L291.924 432.032L307.083 467H299.876L287.135 437.844H289.506L276.719 467H269.511ZM523.65 467H516.675V397.25H523.65V467ZM546.991 467H540.016V397.25H546.991V467Z" fill="white"></path>
<path d="M406.283 209L283.125 604.419L301.811 582.554L406.283 235.709L406.283 209Z" fill="white"></path>
<path d="M406.125 209L529.283 604.419L510.597 582.554L406.125 235.709L406.125 209Z" fill="white"></path>
<path d="M408.31 596.419L242.605 201L267.746 222.865L408.31 569.709L408.31 596.419Z" fill="white"></path>
<path d="M408.097 596.419L573.803 201L548.662 222.865L408.097 569.709L408.097 596.419Z" fill="white"></path>
</svg><style>@media (prefers-color-scheme: light) { :root { filter: none; } }
@media (prefers-color-scheme: dark) { :root { filter: none; } }
</style></svg>